{"title":"Dead Man Down 2013 BRRip 480p x264 AAC - VYTO [P2PDL]","uid":8600833,"size":393937077,"categoryP":"video","categoryS":"movies","magnet":"?xt=urn:btih:0c7cad1dec547a9a76c0c70ca558980feea2ce2e&amp;dn=Dead+Man+Down+2013+BRRip+480p+x264+AAC+-+VYTO+%5BP2PDL%5D&amp;tr=udp%3A%2F%2Ftracker.openbittorrent.com%3A80&amp;tr=udp%3A%2F%2Fopen.demonii.com%3A1337&amp;tr=udp%3A%2F%2Ftracker.coppersurfer.tk%3A6969&amp;tr=udp%3A%2F%2Fexodus.desync.com%3A6969","seeders":1,"leechers":0,"uploader":"ValidusVyto","files":-1,"time":1371875147,"description":"_______ Visit us at our Semi Public Bittorrent Community ________\n  &lt;a href=&quot;\nhttp://p2pdl.com&quot; rel=&quot;nofollow&quot; target=&quot;_NEW&quot;&gt;\nhttp://p2pdl.com&lt;/a&gt;  _____________________________ &lt;a href=&quot; http://p2pdl.com&quot; rel=&quot;nofollow&quot; target=&quot;_NEW&quot;&gt; http://p2pdl.com&lt;/a&gt;\n\n\nDead Man Down 2013 BRRip 480p x264 AAC - VYTO\n\n\nGenre:  Action | Crime | Drama\nPlot: In New York City, a crime lord's right-hand man is seduced by a woman seeking\nretribution.    \nDirector: Niels Arden Oplev\nStars: Colin Farrell, Noomi Rapace, Terrence Howard.\nRated: R for violence, language throughout and a scene of sexuality.\n\nInfo: &lt;a href=&quot;\nhttp://www.imdb.com/title/tt2101341/&quot; rel=&quot;nofollow&quot; target=&quot;_NEW&quot;&gt;\nhttp://www.imdb.com/title/tt2101341/&lt;/a&gt;\n\nTrailer:\n\n\nFormat                         : MPEG-4\nFile size                      : 371 MiB\nDuration                       : 1h 57mn\nOverall bit rate               : 441 Kbps\nSource                         : 720p.BluRay.x264-SPARKS\n\nVideo\nFormat                         : AVC\nBit rate                       : 404 Kbps\nWidth                          : 720 pixels\nHeight                         : 304 pixels\nDisplay aspect ratio           : 2.35:1\nFrame rate mode                : Constant\nFrame rate                     : 23.976 fps\nStream size                    : 335 MiB (90%)\nWriting library                : x264 core 130 r2273\n\nAudio\nFormat                         : AAC\nBit rate mode                  : Variable\nBit rate                       : 40.0 Kbps\nChannel(s)                     : 2 channels\nChannel positions              : Front: L R\nSampling rate                  : 48.0 KHz\nStream size                    : 33.7 MiB (9%)\nLanguage                       : English\n\nSubtitle                       : Yes(English)\n\n &lt;a href=&quot;\nhttp://ultraimg.com/images/H06Te.png&quot; rel=&quot;nofollow&quot; target=&quot;_NEW&quot;&gt;\nhttp://ultraimg.com/images/H06Te.png&lt;/a&gt; &lt;a href=&quot;\nhttp://ultraimg.com/images/qpLzU.png&quot; rel=&quot;nofollow&quot; target=&quot;_NEW&quot;&gt;\nhttp://ultraimg.com/images/qpLzU.png&lt;/a&gt; &lt;a href=&quot;\nhttp://ultraimg.com/images/BmOez.png&quot; rel=&quot;nofollow&quot; target=&quot;_NEW&quot;&gt;\nhttp://ultraimg.com/images/BmOez.png&lt;/a&gt; &lt;a href=&quot;\nhttp://ultraimg.com/images/Vv8mh.png&quot; rel=&quot;nofollow&quot; target=&quot;_NEW&quot;&gt;\nhttp://ultraimg.com/images/Vv8mh.png&lt;/a&gt; &lt;a href=&quot;\nhttp://ultraimg.com/images/3Zna7.png&quot; rel=&quot;nofollow&quot; target=&quot;_NEW&quot;&gt;\nhttp://ultraimg.com/images/3Zna7.png&lt;/a&gt; &lt;a href=&quot;\nhttp://ultraimg.com/images/28rCZ.png&quot; rel=&quot;nofollow&quot; target=&quot;_NEW&quot;&gt;\nhttp://ultraimg.com/images/28rCZ.png&lt;/a&gt; &lt;a href=&quot;\nhttp://ultraimg.com/images/9Wl8C.png&quot; rel=&quot;nofollow&quot; target=&quot;_NEW&quot;&gt;\nhttp://ultraimg.com/images/9Wl8C.png&lt;/a&gt; &lt;a href=&quot;\nhttp://ultraimg.com/images/H9ZWg.png&quot; rel=&quot;nofollow&quot; target=&quot;_NEW&quot;&gt;\nhttp://ultraimg.com/images/H9ZWg.png&lt;/a&gt;\n\n\n----------------------------------------------------------------------------------------------------\n\n\nEncoded using revolutionary 10bit encoding, which enables us to provide you more crispier \nand sharper images at small sizes, just make sure you follow our instructions without a fault.\nRecommend to you to use latest version of VLC player. Install K-Lite Codec Pack or shark007 codecs\nin case of any kind of problem in playback (For non-VLC Media Player users). Alternatively, install\nCore AVC codecs, the fastest decoder that there is coupled with Community Center Codec Pack and play\non Windows Media Player Classic. Check sample to be sure.\nEnjoy!\n\nEncoder Notes:Looking For Early Access To Anything You Can Provide DVDScr, R5, DVDR, BluRay, Direct\nAudio, Music Releases and Seedboxes. We require dedicated servers, so as to do more \nand fast releases of movies.\nIf You Got anything to offer please contact us at &quot;&lt;a class=&quot;__cf_email__&quot; href=&quot;/cdn-cgi/l/email-protection&quot; data-cfemail=&quot;1f7c70716b7e7c6b5f6f2d6f7b73317c7072&quot;&gt;[email&amp;#160;protected]&lt;/a&gt;&lt;script cf-hash='f9e31' type=&quot;text/javascript&quot;&gt;\n/* &lt;![CDATA[ */!function(){try{var t=&quot;currentScript&quot;in document?document.currentScript:function(){for(var t=document.getElementsByTagName(&quot;script&quot;),e=t.length;e--;)if(t[e].getAttribute(&quot;cf-hash&quot;))return t[e]}();if(t&amp;&amp;t.previousSibling){var e,r,n,i,c=t.previousSibling,a=c.getAttribute(&quot;data-cfemail&quot;);if(a){for(e=&quot;&quot;,r=parseInt(a.substr(0,2),16),n=2;a.length-n;n+=2)i=parseInt(a.substr(n,2),16)^r,e+=String.fromCharCode(i);e=document.createTextNode(e),c.parentNode.replaceChild(e,c)}}}catch(u){}}();/* ]]&gt; */&lt;/script&gt;&quot;.\n\nFace book Fan Page:   &lt;a href=&quot;\nhttp://fbl.me/BC&quot; rel=&quot;nofollow&quot; target=&quot;_NEW&quot;&gt;\nhttp://fbl.me/BC&lt;/a&gt;","torrent":{"xt":"urn:btih:0c7cad1dec547a9a76c0c70ca558980feea2ce2e","amp;dn":"Dead+Man+Down+2013+BRRip+480p+x264+AAC+-+VYTO+%5BP2PDL%5D","amp;tr":["udp%3A%2F%2Ftracker.openbittorrent.com%3A80","udp%3A%2F%2Fopen.demonii.com%3A1337","udp%3A%2F%2Ftracker.coppersurfer.tk%3A6969","udp%3A%2F%2Fexodus.desync.com%3A6969"],"infoHash":"0c7cad1dec547a9a76c0c70ca558980feea2ce2e","infoHashBuffer":{"type":"Buffer","data":[12,124,173,29,236,84,122,154,118,192,199,12,165,88,152,15,238,162,206,46]},"announce":[],"urlList":[]}}